Simulation
nRows=20
nColumns=15
endheader
time  TH_x TH_y TH_z SC_y  SC_z  SC_x  AC_y  AC_z  AC_x  GH_y  GH_z  GH_yy  EL_x  PS_y
8.6175  0.000000  0.000000  0.000000  -29.936353894107196  -12.651812194252999  1.3682182678789923  41.282479434582335  -18.374127605069795  -11.908621182779976  23.933977364407752  67.84618826903368  -17.571195621871986  27.05176640057316  120.000000
8.67495  0.000000  0.000000  0.000000  -31.563338974048737  -15.187444636404033  -11.490090145839286  37.26772216598327  15.45261872490148  -11.423056171572547  47.635933569195025  76.29977637198475  -10.487797075322456  15.96002240979187  120.000000
8.7324  0.000000  0.000000  0.000000  -58.35514792499548  -1.669058263273924  -18.09415111468572  50.529697539819225  29.45624260071405  14.726859295285333  50.29835519993757  67.0438076942474  -29.298471415785116  7.361411848473139  120.000000
8.78985  0.000000  0.000000  0.000000  -70.14055595023459  9.561787545581211  13.647610855658826  68.93355155610374  27.051118546524634  18.981424243888043  45.53288975546272  15.328543626693893  -38.89118240058793  13.106624758105154  120.000000
8.8473  0.000000  0.000000  0.000000  -45.95207199885942  -6.216889349786096  19.647170880733178  48.41975325165467  23.873423145004445  -5.542906161210001  -24.000471275921317  36.767568018084084  57.692309427619364  32.726551873571054  120.000000
8.90475  0.000000  0.000000  0.000000  -33.93735602369078  0.8816712015491363  -0.11474057319709408  49.66297235748747  7.646999366566293  -11.55059260253924  3.1470764222847105  71.72549197304343  44.663645411689146  31.338076896657082  120.000000
8.9622  0.000000  0.000000  0.000000  -41.648190276781335  13.952820394669669  4.082881364956062  44.6158165498008  -20.321161882898064  3.1117664999769983  30.401901764436982  67.0426504698334  15.813804027048223  22.18824902980063  120.000000
9.01965  0.000000  0.000000  0.000000  -43.007421663047054  -3.4617783282248693  18.584357557502997  51.2297684549376  -23.741342635192844  -3.955784784786457  10.942292369434563  69.47026615663246  -21.081095300639404  32.61862835757271  120.000000
9.0771  0.000000  0.000000  0.000000  -46.56639313757498  -3.2767345445591025  22.75309326747138  58.75769785116939  -23.414061300088367  -2.6658987057352164  18.11154796608463  69.7218771684105  -15.916136465979829  14.602931280131902  120.000000
9.13455  0.000000  0.000000  0.000000  -56.77887371058653  -1.7583913833289588  26.52001273278601  77.00770336818692  -5.795588947116463  10.302126939616732  35.193173165579594  44.807807117740694  -9.80466995664436  5.309680374603313  120.000000
9.192  0.000000  0.000000  0.000000  -49.61821981365946  -3.10387735126483  1.8278273564890926  61.42111993753102  29.49962728613009  1.7486347468393952  29.813199064541763  52.076026728514165  11.925671173459499  16.842561422570096  120.000000
9.24945  0.000000  0.000000  0.000000  -32.31410266390604  -0.0862179294794679  -27.92996732517847  39.032972888449116  11.255197595294753  17.784984376236828  -0.555491233112829  70.73471709630252  40.521886013536886  26.776177333611123  120.000000
9.3069  0.000000  0.000000  0.000000  -48.01245589416602  19.145498627669298  -17.607634305766524  29.935385445336372  33.96201281426864  29.106814863402587  -114.54063535929518  30.173984633208867  141.4361447102094  9.484868735721479  120.000000
9.36435  0.000000  0.000000  0.000000  -38.65202300366313  30.51956978844989  -6.89834085277079  30.69221918366233  23.08611536628292  33.81209448388422  -127.26204722495333  29.37337972370044  130.44897476789444  31.257075885638315  120.000000
9.421800000000001  0.000000  0.000000  0.000000  -55.936383480290594  33.46888299542288  16.904650185101453  31.541391297754444  -9.217598104894748  -16.167609724558627  133.97822503670585  23.53357367764031  -125.8021404329848  24.016348027819955  120.000000
9.47925  0.000000  0.000000  0.000000  -63.15371812874675  -21.452798204253806  13.067802283414622  63.644499251708915  1.968895438883906  -8.379095485969394  -140.58596467844666  25.976052445377725  117.65492885142856  5.110274226171663  120.000000
9.5367  0.000000  0.000000  0.000000  -22.052922035523853  -17.587097367894227  3.7604053566207445  62.15100059279777  -18.99795173686392  -7.157626303874447  137.65523066370665  23.403074744035724  -144.18373663721522  5.222070848078378  120.000000
9.59415  0.000000  0.000000  0.000000  -64.06789571881923  24.611316483423042  18.707680868748763  65.79481389505516  8.76489013451173  34.985358317319225  96.90178263209854  57.63072782082913  -122.14359410129127  5.101096099858483  120.000000
9.6516  0.000000  0.000000  0.000000  -52.76696690731282  9.07957915624245  -16.640459428349573  78.03847499306075  6.730108530820667  30.950250113615667  99.76192154243171  81.82651615809489  -108.53076331039834  5.0671436895251665  120.000000
9.70905  0.000000  0.000000  0.000000  -42.72932418709802  14.612585342428723  -5.815184912409514  76.69216823634929  16.82849499839193  36.852368705093006  93.5113180054737  70.23526172758162  -119.27208828851703  33.26506731584958  120.000000
